<?xml version="1.0" encoding="UTF-8" standalone="no"?>
<!DOCTYPE svg PUBLIC "-//W3C//DTD SVG 1.1//EN" "http://www.w3.org/Graphics/SVG/1.1/DTD/svg11.dtd">
<svg width="100%" height="100%" viewBox="0 0 3689 650" version="1.1" xmlns="http://www.w3.org/2000/svg" xmlns:xlink="http://www.w3.org/1999/xlink" xml:space="preserve" xmlns:serif="http://www.serif.com/" style="fill-rule:evenodd;clip-rule:evenodd;stroke-linejoin:round;stroke-miterlimit:2;">
    <g transform="matrix(1,0,0,1,-655.779051,-2175.151714)">
        <g transform="matrix(1,0,0,1,84.574464,0)">
            <g transform="matrix(5.349228,0,0,5.349228,-5004.447929,-10988.265101)">
                <path d="M1151.218,2556.75L1151.218,2465.808L1176.915,2465.808C1178.659,2465.808 1180.214,2466.908 1180.794,2468.553C1184.071,2477.848 1194.547,2507.558 1194.547,2507.558C1195.164,2509.494 1195.868,2512.013 1196.66,2515.115C1197.452,2518.217 1198.258,2521.558 1199.076,2525.137C1199.895,2528.717 1200.661,2532.193 1201.374,2535.566C1202.088,2538.938 1202.677,2541.873 1203.14,2544.373L1199.489,2544.373C1199.971,2541.929 1200.563,2539.031 1201.265,2535.677C1201.969,2532.323 1202.729,2528.852 1203.548,2525.264C1204.366,2521.675 1205.171,2518.315 1205.961,2515.186C1206.752,2512.056 1207.456,2509.513 1208.073,2507.558C1208.073,2507.558 1218.389,2477.884 1221.626,2468.57C1222.201,2466.917 1223.76,2465.808 1225.511,2465.808L1251.257,2465.808L1251.257,2556.75L1232.559,2556.75L1232.559,2513.873C1232.559,2511.892 1232.591,2509.42 1232.656,2506.459C1232.72,2503.499 1232.799,2500.3 1232.893,2496.864C1232.987,2493.428 1233.076,2489.962 1233.158,2486.468C1233.242,2482.972 1233.292,2479.69 1233.311,2476.621L1234.518,2476.621C1233.73,2480 1232.863,2483.485 1231.917,2487.076C1230.972,2490.666 1230.025,2494.155 1229.077,2497.542C1228.129,2500.928 1227.225,2504.032 1226.367,2506.852C1225.509,2509.673 1224.774,2512.013 1224.16,2513.873L1209.109,2556.75L1193.402,2556.75L1178.112,2513.873C1177.499,2512.031 1176.767,2509.715 1175.917,2506.923C1175.067,2504.131 1174.156,2501.05 1173.185,2497.682C1172.215,2494.313 1171.247,2490.825 1170.282,2487.216C1169.316,2483.607 1168.391,2480.075 1167.505,2476.621L1168.966,2476.621C1169.004,2479.559 1169.064,2482.757 1169.147,2486.215C1169.23,2489.673 1169.314,2493.134 1169.398,2496.597C1169.483,2500.061 1169.562,2503.297 1169.636,2506.305C1169.71,2509.313 1169.747,2511.836 1169.747,2513.873L1169.747,2556.75L1151.218,2556.75Z" style="fill-rule:nonzero;"/>
                <path d="M1267.253,2556.75L1267.253,2488.513L1285.556,2488.513L1285.556,2556.75L1267.253,2556.75ZM1276.422,2479.618C1273.665,2479.618 1271.303,2478.697 1269.336,2476.854C1267.369,2475.011 1266.386,2472.8 1266.386,2470.22C1266.386,2467.587 1267.369,2465.36 1269.336,2463.539C1271.303,2461.718 1273.665,2460.807 1276.422,2460.807C1279.19,2460.807 1281.56,2461.716 1283.529,2463.535C1285.5,2465.354 1286.485,2467.582 1286.485,2470.218C1286.485,2472.801 1285.5,2475.014 1283.529,2476.855C1281.56,2478.697 1279.19,2479.618 1276.422,2479.618Z" style="fill-rule:nonzero;"/>
                <path d="M1319.43,2517.242L1319.43,2556.75L1301.128,2556.75L1301.128,2488.513L1318.41,2488.513L1318.702,2505.548L1317.604,2505.548C1319.394,2499.856 1322.113,2495.452 1325.76,2492.335C1329.407,2489.217 1334.112,2487.659 1339.872,2487.659C1344.602,2487.659 1348.724,2488.687 1352.237,2490.744C1355.751,2492.801 1358.48,2495.748 1360.423,2499.585C1362.367,2503.423 1363.34,2508.011 1363.34,2513.35L1363.34,2556.75L1345.036,2556.75L1345.036,2516.54C1345.036,2512.301 1343.942,2508.977 1341.756,2506.567C1339.57,2504.157 1336.547,2502.952 1332.687,2502.952C1330.113,2502.952 1327.826,2503.516 1325.826,2504.644C1323.826,2505.771 1322.26,2507.396 1321.128,2509.518C1319.996,2511.639 1319.43,2514.214 1319.43,2517.242Z" style="fill-rule:nonzero;"/>
                <path d="M1403.895,2557.885C1398.678,2557.885 1393.964,2556.534 1389.753,2553.832C1385.542,2551.13 1382.216,2547.167 1379.774,2541.944C1377.333,2536.719 1376.112,2530.321 1376.112,2522.749C1376.112,2514.975 1377.37,2508.487 1379.887,2503.284C1382.404,2498.08 1385.762,2494.175 1389.962,2491.569C1394.162,2488.962 1398.772,2487.659 1403.791,2487.659C1407.655,2487.659 1410.873,2488.309 1413.444,2489.609C1416.015,2490.909 1418.09,2492.512 1419.669,2494.418C1421.249,2496.324 1422.438,2498.185 1423.237,2499.999L1423.827,2499.999L1423.827,2465.808L1442.131,2465.808L1442.131,2556.75L1424.128,2556.75L1424.128,2545.829L1423.237,2545.829C1422.395,2547.661 1421.168,2549.502 1419.559,2551.35C1417.949,2553.198 1415.871,2554.749 1413.324,2556.004C1410.776,2557.258 1407.633,2557.885 1403.895,2557.885ZM1409.531,2543.214C1412.648,2543.214 1415.301,2542.356 1417.49,2540.641C1419.68,2538.926 1421.348,2536.531 1422.494,2533.456C1423.64,2530.381 1424.214,2526.794 1424.214,2522.693C1424.214,2518.548 1423.645,2514.957 1422.507,2511.918C1421.371,2508.879 1419.708,2506.521 1417.519,2504.845C1415.33,2503.168 1412.667,2502.33 1409.531,2502.33C1406.338,2502.33 1403.653,2503.197 1401.477,2504.93C1399.301,2506.662 1397.66,2509.057 1396.554,2512.115C1395.448,2515.172 1394.896,2518.698 1394.896,2522.693C1394.896,2526.684 1395.453,2530.228 1396.567,2533.322C1397.683,2536.417 1399.333,2538.84 1401.519,2540.589C1403.705,2542.339 1406.375,2543.214 1409.531,2543.214Z" style="fill-rule:nonzero;"/>
                <path d="M1457.744,2582.263L1457.744,2488.513L1475.746,2488.513L1475.746,2499.999L1476.638,2499.999C1477.477,2498.185 1478.675,2496.324 1480.234,2494.418C1481.794,2492.512 1483.859,2490.909 1486.43,2489.609C1489.002,2488.309 1492.22,2487.659 1496.083,2487.659C1501.143,2487.659 1505.763,2488.962 1509.942,2491.569C1514.122,2494.175 1517.47,2498.08 1519.986,2503.284C1522.503,2508.487 1523.762,2514.975 1523.762,2522.749C1523.762,2530.321 1522.541,2536.719 1520.1,2541.944C1517.658,2547.167 1514.342,2551.13 1510.151,2553.832C1505.961,2556.534 1501.237,2557.885 1495.979,2557.885C1492.282,2557.885 1489.149,2557.258 1486.581,2556.004C1484.013,2554.749 1481.929,2553.198 1480.329,2551.35C1478.729,2549.502 1477.499,2547.661 1476.638,2545.829L1476.047,2545.829L1476.047,2582.263L1457.744,2582.263ZM1490.343,2543.214C1493.539,2543.214 1496.22,2542.339 1498.386,2540.589C1500.551,2538.84 1502.191,2536.417 1503.306,2533.322C1504.421,2530.228 1504.978,2526.684 1504.978,2522.693C1504.978,2518.698 1504.425,2515.172 1503.32,2512.115C1502.214,2509.057 1500.579,2506.662 1498.413,2504.93C1496.248,2503.197 1493.558,2502.33 1490.343,2502.33C1487.207,2502.33 1484.544,2503.168 1482.355,2504.845C1480.166,2506.521 1478.503,2508.879 1477.367,2511.918C1476.23,2514.957 1475.661,2518.548 1475.661,2522.693C1475.661,2526.794 1476.234,2530.381 1477.38,2533.456C1478.526,2536.531 1480.199,2538.926 1482.397,2540.641C1484.596,2542.356 1487.244,2543.214 1490.343,2543.214Z" style="fill-rule:nonzero;"/>
                <path d="M1554.843,2517.242L1554.843,2556.75L1536.54,2556.75L1536.54,2465.808L1554.513,2465.808L1554.513,2505.548L1553.017,2505.548C1554.807,2499.856 1557.525,2495.452 1561.173,2492.335C1564.82,2489.217 1569.524,2487.659 1575.285,2487.659C1580.015,2487.659 1584.141,2488.687 1587.664,2490.744C1591.187,2492.801 1593.921,2495.748 1595.864,2499.585C1597.808,2503.423 1598.78,2508.011 1598.78,2513.35L1598.78,2556.75L1580.448,2556.75L1580.448,2516.54C1580.448,2512.301 1579.355,2508.977 1577.169,2506.567C1574.983,2504.157 1571.96,2502.952 1568.1,2502.952C1565.526,2502.952 1563.239,2503.516 1561.238,2504.644C1559.239,2505.771 1557.673,2507.396 1556.541,2509.518C1555.409,2511.639 1554.843,2514.214 1554.843,2517.242Z" style="fill-rule:nonzero;"/>
                <path d="M1644.899,2558.084C1638.055,2558.084 1632.133,2556.613 1627.133,2553.673C1622.134,2550.732 1618.283,2546.622 1615.58,2541.344C1612.876,2536.065 1611.525,2529.926 1611.525,2522.927C1611.525,2515.872 1612.876,2509.701 1615.58,2504.413C1618.283,2499.125 1622.134,2495.011 1627.133,2492.07C1632.133,2489.129 1638.055,2487.659 1644.899,2487.659C1651.762,2487.659 1657.687,2489.129 1662.674,2492.07C1667.661,2495.011 1671.506,2499.125 1674.209,2504.413C1676.912,2509.701 1678.264,2515.872 1678.264,2522.927C1678.264,2529.926 1676.912,2536.065 1674.209,2541.344C1671.506,2546.622 1667.661,2550.732 1662.674,2553.673C1657.687,2556.613 1651.762,2558.084 1644.899,2558.084ZM1644.899,2543.676C1648.157,2543.676 1650.881,2542.77 1653.072,2540.96C1655.262,2539.149 1656.904,2536.672 1657.998,2533.53C1659.093,2530.388 1659.64,2526.832 1659.64,2522.862C1659.64,2518.85 1659.093,2515.281 1657.998,2512.153C1656.904,2509.025 1655.262,2506.562 1653.072,2504.764C1650.881,2502.966 1648.157,2502.067 1644.899,2502.067C1641.639,2502.067 1638.917,2502.966 1636.734,2504.764C1634.551,2506.562 1632.913,2509.02 1631.818,2512.139C1630.724,2515.257 1630.177,2518.831 1630.177,2522.862C1630.177,2526.832 1630.724,2530.388 1631.818,2533.53C1632.913,2536.672 1634.551,2539.149 1636.734,2540.96C1638.917,2542.77 1641.639,2543.676 1644.899,2543.676Z" style="fill-rule:nonzero;"/>
                <path d="M1691.02,2556.75L1691.02,2488.513L1708.759,2488.513L1708.759,2500.396L1709.492,2500.396C1710.731,2496.19 1712.825,2493.006 1715.775,2490.845C1718.724,2488.683 1722.112,2487.602 1725.939,2487.602C1726.885,2487.602 1727.901,2487.656 1728.987,2487.763C1730.073,2487.869 1731.029,2488.019 1731.856,2488.214L1731.856,2504.568C1731.047,2504.289 1729.865,2504.063 1728.31,2503.889C1726.755,2503.715 1725.301,2503.628 1723.946,2503.628C1721.152,2503.628 1718.645,2504.233 1716.423,2505.442C1714.202,2506.651 1712.463,2508.325 1711.207,2510.464C1709.951,2512.603 1709.323,2515.086 1709.323,2517.915L1709.323,2556.75L1691.02,2556.75Z" style="fill-rule:nonzero;"/>
            </g>
            <g transform="matrix(1.203571,0,0,1.070539,-3686.85236,12.026527)">
                <ellipse cx="3683.073" cy="2329.533" rx="145.221" ry="170.467" style="fill:rgb(19,8,8);"/>
            </g>
            <g transform="matrix(0.548613,0,-0.184408,0.92889,1023.343069,366.149675)">
                <path d="M859.22,1977.952L859.22,2500L700.707,2500C695.251,2500 689.596,2498.556 685.297,2496.066C680.997,2493.575 678.505,2490.299 678.505,2487.138C678.505,2413.621 678.505,2047.752 678.505,1986.622C678.505,1981.582 684.772,1977.952 693.47,1977.952C736.787,1977.952 859.22,1977.952 859.22,1977.952Z" style="fill:rgb(19,8,8);"/>
            </g>
        </g>
    </g>
</svg>
